<svg xmlns="http://www.w3.org/2000/svg" xmlns:xlink="http://www.w3.org/1999/xlink" width="1920" height="1586" viewBox="0 0 1920 1586"><defs><style>.a{fill:#fff;}.b{clip-path:url(#a);}.c,.f,.g{fill:none;stroke-width:4px;}.c{stroke:#494bb5;opacity:0.17;}.d{fill:#f7f6fe;}.e{fill:#2e059b;opacity:0.04;}.f{stroke:#343578;opacity:0.11;}.g{stroke:#7f81de;opacity:0.22;}</style><clipPath id="a"><rect class="a" width="1920" height="1586" transform="translate(0 4215)"/></clipPath></defs><g class="b" transform="translate(0 -4215)"><path class="c" d="M11255.264,18749.5s-174.275-268.029-248.11-158.994c-28.07,41.453-32.624,147.006-49.976,204.02-62.868,206.57-324.851,406.209-118.279,467.281s307.511-59.475,264.4-151.086,71.7-170.219,71.7-170.219l66.033,21.334" transform="translate(-9248 -14529)"/><rect class="d" width="1920" height="1579" transform="translate(0 4215)"/><path class="c" d="M11255.264,18749.5s-174.275-268.029-248.11-158.994c-28.07,41.453-32.624,147.006-49.976,204.02-62.868,206.57-324.851,406.209-118.279,467.281s307.511-59.475,264.4-151.086,71.7-170.219,71.7-170.219l66.033,21.334" transform="translate(-9248 -14529)"/><path class="e" d="M363.4,991.565c251.152,34.419,608.129-318.044,363.4-495.782S564.093,0,363.4,0,0,221.969,0,495.782,112.244,957.146,363.4,991.565Z" transform="matrix(-0.94, -0.342, 0.342, -0.94, 342.605, 5444.966)"/><path class="f" d="M-14331.006,19262.535s624.153-45.668,397.833,174.85,14.508,353.99,49.326,371.4,266.94,55.129,246.63-136.373,75.44-194.4,75.44-194.4,574.5-55.131,165.388,513.57-829.318-557.465-829.318-557.465" transform="matrix(0.788, 0.616, -0.616, 0.788, 23039.395, -1064.322)"/><path class="g" d="M56.895,580.661S247.072,374.637,80.667,349.543,56.895,32.58,56.895,32.58s161.123-108.295,171.688,70,108.3,165.084,151.877,124.143,248.288-93.768,147.916,89.807S219.338,637.45,244.431,832.909" transform="matrix(-0.966, -0.259, 0.259, -0.966, 1954.428, 6427.227)"/></g></svg>