<svg xmlns="http://www.w3.org/2000/svg" width="1384.586" height="273.305" viewBox="0 0 1384.586 273.305"><defs><style>.a{fill:#0f1056;}.b,.c,.d{fill:none;}.c{stroke:#f1e434;}.c,.d{stroke-linecap:round;stroke-width:2px;}.d{stroke:#81cf51;}.e,.f,.g{stroke:none;}.f{fill:#c9208b;}.g{fill:#c0e86b;}</style></defs><g transform="translate(-273.414 -1277.727)"><path class="a" d="M28.916,1.859,1306.5-29.293A25.564,25.564,0,0,1,1332.06-3.729l28.151,222.177a25.564,25.564,0,0,1-25.564,25.564L-.409,228.438c-14.119,0-23.967-12.006-23.967-26.125L-.51,23.1C2.18,8.3,14.8,1.859,28.916,1.859Z" transform="translate(297.789 1307.02)"/><g class="b" transform="translate(1482.68 1322.334) rotate(-55)"><path class="e" d="M7.179,4.322a3,3,0,0,1,5.154,0l4.475,7.506a3,3,0,0,1-2.577,4.536H5.281A3,3,0,0,1,2.7,11.828Z"/><path class="f" d="M 9.75567626953125 4.858631134033203 C 9.58487606048584 4.858631134033203 9.159276008605957 4.906180381774902 8.896726608276367 5.34657096862793 L 4.42215633392334 12.8523006439209 C 4.153165817260742 13.30351066589355 4.325166702270508 13.70613098144531 4.411605834960938 13.85829067230225 C 4.498045921325684 14.01045036315918 4.755796432495117 14.36436080932617 5.281105995178223 14.36436080932617 L 14.23024559020996 14.36436080932617 C 14.75555610656738 14.36436080932617 15.0133056640625 14.01045036315918 15.09974670410156 13.85829067230225 C 15.18618583679199 13.70613098144531 15.35818672180176 13.30351066589355 15.08919620513916 12.8523006439209 L 10.61462593078613 5.34657096862793 C 10.35207653045654 4.906180381774902 9.92647647857666 4.858631134033203 9.75567626953125 4.858631134033203 M 9.75567626953125 2.858635902404785 C 10.75321102142334 2.858635902404785 11.75074577331543 3.34657096862793 12.33251571655273 4.322441101074219 L 16.80708694458008 11.82817077636719 C 17.99921607971191 13.82787132263184 16.55833625793457 16.36436080932617 14.23024559020996 16.36436080932617 L 5.281105995178223 16.36436080932617 C 2.95301628112793 16.36436080932617 1.512136459350586 13.82787132263184 2.704265594482422 11.82817077636719 L 7.178835868835449 4.322441101074219 C 7.760605812072754 3.34657096862793 8.75814151763916 2.858635902404785 9.75567626953125 2.858635902404785 Z"/></g><g transform="translate(-58 1169)"><line class="c" x2="11" y2="11" transform="translate(747.222 292) rotate(-45)"/><line class="c" y1="11" x2="11" transform="translate(747.222 292) rotate(-45)"/></g><line class="d" y1="11" x2="11" transform="translate(379.5 1336.5)"/><g class="b" transform="matrix(0.559, -0.829, 0.829, 0.559, 1293.449, 1520.156)"><path class="e" d="M12.064,5.763a4,4,0,0,1,6.872,0l8.459,14.188A4,4,0,0,1,23.959,26H7.041a4,4,0,0,1-3.436-6.048Z"/><path class="g" d="M 15.50000476837158 5.811494827270508 C 15.15840435028076 5.811494827270508 14.30718421936035 5.906583786010742 13.7821044921875 6.787364959716797 L 5.32359504699707 20.97579383850098 C 4.785614013671875 21.87822341918945 5.129613876342773 22.68347549438477 5.302484512329102 22.98779487609863 C 5.475364685058594 23.29210472106934 5.990875244140625 23.99992370605469 7.041494369506836 23.99992370605469 L 23.95851516723633 23.99992370605469 C 25.00913429260254 23.99992370605469 25.52464485168457 23.29210472106934 25.69752502441406 22.98778533935547 C 25.87039566040039 22.68346405029297 26.21439361572266 21.87822341918945 25.67641448974609 20.97579383850098 L 17.2178955078125 6.787364959716797 C 16.69281387329102 5.906583786010742 15.8416051864624 5.811494827270508 15.50000476837158 5.811494827270508 M 15.50000381469727 3.811494827270508 C 16.83004951477051 3.811494827270508 18.16009521484375 4.462074279785156 18.93578338623047 5.763235092163086 L 27.3943042755127 19.95166397094727 C 28.98381423950195 22.61793518066406 27.06264495849609 25.99992370605469 23.95851516723633 25.99992370605469 L 7.041494369506836 25.99992370605469 C 3.93736457824707 25.99992370605469 2.016195297241211 22.61794471740723 3.605705261230469 19.95166397094727 L 12.0642147064209 5.763235092163086 C 12.83991050720215 4.462074279785156 14.16995811462402 3.811494827270508 15.50000381469727 3.811494827270508 Z"/></g></g></svg>