<svg xmlns="http://www.w3.org/2000/svg" width="35" height="35" viewBox="0 0 35 35"><defs><style>.a{fill:#f7f7f7;opacity:0.102;}.b{fill:#fff;}</style></defs><g transform="translate(-0.202 -0.201)"><circle class="a" cx="17.5" cy="17.5" r="17.5" transform="translate(0.202 0.201)"/><path class="b" d="M3,13.4H.221V4.454H3ZM1.609,3.234A1.617,1.617,0,1,1,3.218,1.61,1.622,1.622,0,0,1,1.609,3.234ZM13.4,13.4H10.625V9.046c0-1.038-.021-2.369-1.444-2.369-1.444,0-1.666,1.128-1.666,2.294V13.4H4.74V4.454H7.4v1.22h.039A2.919,2.919,0,0,1,10.072,4.23c2.812,0,3.329,1.851,3.329,4.256V13.4Z" transform="translate(11.11 10.6)"/></g></svg>