<svg xmlns="http://www.w3.org/2000/svg" xmlns:xlink="http://www.w3.org/1999/xlink" width="1920" height="1236" viewBox="0 0 1920 1236"><defs><style>.a{fill:#fff;stroke:#707070;}.b{clip-path:url(#a);}.c{fill:#f7f6fe;}.d,.i{opacity:0.11;}.e{fill:#8891c5;}.f{opacity:0.27;}.g{fill:#494ab9;}.h,.i{fill:none;stroke-width:4px;}.h{stroke:#494bb5;opacity:0.17;}.i{stroke:#343578;}</style><clipPath id="a"><rect class="a" width="1920" height="1236" transform="translate(0 960)"/></clipPath></defs><g class="b" transform="translate(0 -960)"><rect class="c" width="1920" height="1237" transform="translate(0 960)"/><g class="d" transform="translate(9073.276 -17021.385)"><circle class="e" cx="4" cy="4" r="4" transform="translate(-8854.276 18265.385)"/><circle class="e" cx="4" cy="4" r="4" transform="translate(-8833.276 18265.385)"/><circle class="e" cx="4" cy="4" r="4" transform="translate(-8813.276 18265.385)"/><circle class="e" cx="4" cy="4" r="4" transform="translate(-8793.276 18265.385)"/><circle class="e" cx="4" cy="4" r="4" transform="translate(-8772.276 18265.385)"/><circle class="e" cx="4" cy="4" r="4" transform="translate(-8752.276 18265.385)"/><circle class="e" cx="4" cy="4" r="4" transform="translate(-8732.276 18265.385)"/><circle class="e" cx="4" cy="4" r="4" transform="translate(-8711.276 18265.385)"/><circle class="e" cx="4" cy="4" r="4" transform="translate(-8691.276 18265.385)"/><circle class="e" cx="4" cy="4" r="4" transform="translate(-8854.276 18285.385)"/><circle class="e" cx="4" cy="4" r="4" transform="translate(-8833.276 18285.385)"/><circle class="e" cx="4" cy="4" r="4" transform="translate(-8813.276 18285.385)"/><circle class="e" cx="4" cy="4" r="4" transform="translate(-8793.276 18285.385)"/><circle class="e" cx="4" cy="4" r="4" transform="translate(-8772.276 18285.385)"/><circle class="e" cx="4" cy="4" r="4" transform="translate(-8752.276 18285.385)"/><circle class="e" cx="4" cy="4" r="4" transform="translate(-8732.276 18285.385)"/><circle class="e" cx="4" cy="4" r="4" transform="translate(-8711.276 18285.385)"/><circle class="e" cx="4" cy="4" r="4" transform="translate(-8691.276 18285.385)"/><circle class="e" cx="4" cy="4" r="4" transform="translate(-8854.276 18305.385)"/><circle class="e" cx="4" cy="4" r="4" transform="translate(-8833.276 18305.385)"/><circle class="e" cx="4" cy="4" r="4" transform="translate(-8813.276 18305.385)"/><circle class="e" cx="4" cy="4" r="4" transform="translate(-8793.276 18305.385)"/><circle class="e" cx="4" cy="4" r="4" transform="translate(-8772.276 18305.385)"/><circle class="e" cx="4" cy="4" r="4" transform="translate(-8752.276 18305.385)"/><circle class="e" cx="4" cy="4" r="4" transform="translate(-8732.276 18305.385)"/><circle class="e" cx="4" cy="4" r="4" transform="translate(-8711.276 18305.385)"/><circle class="e" cx="4" cy="4" r="4" transform="translate(-8691.276 18305.385)"/><circle class="e" cx="4" cy="4" r="4" transform="translate(-8854.276 18326.385)"/><circle class="e" cx="4" cy="4" r="4" transform="translate(-8833.276 18326.385)"/><circle class="e" cx="4" cy="4" r="4" transform="translate(-8813.276 18326.385)"/><circle class="e" cx="4" cy="4" r="4" transform="translate(-8793.276 18326.385)"/><circle class="e" cx="4" cy="4" r="4" transform="translate(-8772.276 18326.385)"/><circle class="e" cx="4" cy="4" r="4" transform="translate(-8752.276 18326.385)"/><circle class="e" cx="4" cy="4" r="4" transform="translate(-8732.276 18326.385)"/><circle class="e" cx="4" cy="4" r="4" transform="translate(-8711.276 18326.385)"/><circle class="e" cx="4" cy="4" r="4" transform="translate(-8691.276 18326.385)"/><circle class="e" cx="4" cy="4" r="4" transform="translate(-8854.276 18346.385)"/><circle class="e" cx="4" cy="4" r="4" transform="translate(-8833.276 18346.385)"/><circle class="e" cx="4" cy="4" r="4" transform="translate(-8813.276 18346.385)"/><circle class="e" cx="4" cy="4" r="4" transform="translate(-8793.276 18346.385)"/><circle class="e" cx="4" cy="4" r="4" transform="translate(-8772.276 18346.385)"/><circle class="e" cx="4" cy="4" r="4" transform="translate(-8752.276 18346.385)"/><circle class="e" cx="4" cy="4" r="4" transform="translate(-8732.276 18346.385)"/><circle class="e" cx="4" cy="4" r="4" transform="translate(-8711.276 18346.385)"/><circle class="e" cx="4" cy="4" r="4" transform="translate(-8691.276 18346.385)"/><circle class="e" cx="4" cy="4" r="4" transform="translate(-8854.276 18366.385)"/><circle class="e" cx="4" cy="4" r="4" transform="translate(-8833.276 18366.385)"/><circle class="e" cx="4" cy="4" r="4" transform="translate(-8813.276 18366.385)"/><circle class="e" cx="4" cy="4" r="4" transform="translate(-8793.276 18366.385)"/><circle class="e" cx="4" cy="4" r="4" transform="translate(-8772.276 18366.385)"/><circle class="e" cx="4" cy="4" r="4" transform="translate(-8752.276 18366.385)"/><circle class="e" cx="4" cy="4" r="4" transform="translate(-8732.276 18366.385)"/><circle class="e" cx="4" cy="4" r="4" transform="translate(-8711.276 18366.385)"/><circle class="e" cx="4" cy="4" r="4" transform="translate(-8691.276 18366.385)"/><circle class="e" cx="4" cy="4" r="4" transform="translate(-8854.276 18387.385)"/><circle class="e" cx="4" cy="4" r="4" transform="translate(-8833.276 18387.385)"/><circle class="e" cx="4" cy="4" r="4" transform="translate(-8813.276 18387.385)"/><circle class="e" cx="4" cy="4" r="4" transform="translate(-8793.276 18387.385)"/><circle class="e" cx="4" cy="4" r="4" transform="translate(-8772.276 18387.385)"/><circle class="e" cx="4" cy="4" r="4" transform="translate(-8752.276 18387.385)"/><circle class="e" cx="4" cy="4" r="4" transform="translate(-8732.276 18387.385)"/><circle class="e" cx="4" cy="4" r="4" transform="translate(-8711.276 18387.385)"/><circle class="e" cx="4" cy="4" r="4" transform="translate(-8691.276 18387.385)"/><circle class="e" cx="4" cy="4" r="4" transform="translate(-8854.276 18407.385)"/><circle class="e" cx="4" cy="4" r="4" transform="translate(-8833.276 18407.385)"/><circle class="e" cx="4" cy="4" r="4" transform="translate(-8813.276 18407.385)"/><circle class="e" cx="4" cy="4" r="4" transform="translate(-8793.276 18407.385)"/><circle class="e" cx="4" cy="4" r="4" transform="translate(-8772.276 18407.385)"/><circle class="e" cx="4" cy="4" r="4" transform="translate(-8752.276 18407.385)"/><circle class="e" cx="4" cy="4" r="4" transform="translate(-8732.276 18407.385)"/><circle class="e" cx="4" cy="4" r="4" transform="translate(-8711.276 18407.385)"/><circle class="e" cx="4" cy="4" r="4" transform="translate(-8691.276 18407.385)"/></g><g class="f" transform="translate(10406 -16480)"><circle class="g" cx="6.5" cy="6.5" r="6.5" transform="translate(-8854 18265)"/><circle class="g" cx="6.5" cy="6.5" r="6.5" transform="translate(-8821 18265)"/><circle class="g" cx="6.5" cy="6.5" r="6.5" transform="translate(-8788 18265)"/><circle class="g" cx="6.5" cy="6.5" r="6.5" transform="translate(-8755 18265)"/><circle class="g" cx="6.5" cy="6.5" r="6.5" transform="translate(-8722 18265)"/><circle class="g" cx="6.5" cy="6.5" r="6.5" transform="translate(-8689 18265)"/><circle class="g" cx="6.5" cy="6.5" r="6.5" transform="translate(-8656 18265)"/><circle class="g" cx="6.5" cy="6.5" r="6.5" transform="translate(-8623 18265)"/><circle class="g" cx="6.5" cy="6.5" r="6.5" transform="translate(-8590 18265)"/><circle class="g" cx="6.5" cy="6.5" r="6.5" transform="translate(-8854 18298)"/><circle class="g" cx="6.5" cy="6.5" r="6.5" transform="translate(-8821 18298)"/><circle class="g" cx="6.5" cy="6.5" r="6.5" transform="translate(-8788 18298)"/><circle class="g" cx="6.5" cy="6.5" r="6.5" transform="translate(-8755 18298)"/><circle class="g" cx="6.5" cy="6.5" r="6.5" transform="translate(-8722 18298)"/><circle class="g" cx="6.5" cy="6.5" r="6.5" transform="translate(-8689 18298)"/><circle class="g" cx="6.5" cy="6.5" r="6.5" transform="translate(-8656 18298)"/><circle class="g" cx="6.5" cy="6.5" r="6.5" transform="translate(-8623 18298)"/><circle class="g" cx="6.5" cy="6.5" r="6.5" transform="translate(-8590 18298)"/><circle class="g" cx="6.5" cy="6.5" r="6.5" transform="translate(-8854 18331)"/><circle class="g" cx="6.5" cy="6.5" r="6.5" transform="translate(-8821 18331)"/><circle class="g" cx="6.5" cy="6.5" r="6.5" transform="translate(-8788 18331)"/><circle class="g" cx="6.5" cy="6.5" r="6.5" transform="translate(-8755 18331)"/><circle class="g" cx="6.5" cy="6.5" r="6.5" transform="translate(-8722 18331)"/><circle class="g" cx="6.5" cy="6.5" r="6.5" transform="translate(-8689 18331)"/><circle class="g" cx="6.5" cy="6.5" r="6.5" transform="translate(-8656 18331)"/><circle class="g" cx="6.5" cy="6.5" r="6.5" transform="translate(-8623 18331)"/><circle class="g" cx="6.5" cy="6.5" r="6.5" transform="translate(-8590 18331)"/><circle class="g" cx="6.5" cy="6.5" r="6.5" transform="translate(-8854 18364)"/><circle class="g" cx="6.5" cy="6.5" r="6.5" transform="translate(-8821 18364)"/><circle class="g" cx="6.5" cy="6.5" r="6.5" transform="translate(-8788 18364)"/><circle class="g" cx="6.5" cy="6.5" r="6.5" transform="translate(-8755 18364)"/><circle class="g" cx="6.5" cy="6.5" r="6.5" transform="translate(-8722 18364)"/><circle class="g" cx="6.5" cy="6.5" r="6.5" transform="translate(-8689 18364)"/><circle class="g" cx="6.5" cy="6.5" r="6.5" transform="translate(-8656 18364)"/><circle class="g" cx="6.5" cy="6.5" r="6.5" transform="translate(-8623 18364)"/><circle class="g" cx="6.5" cy="6.5" r="6.5" transform="translate(-8590 18364)"/><circle class="g" cx="6.5" cy="6.5" r="6.5" transform="translate(-8854 18397)"/><circle class="g" cx="6.5" cy="6.5" r="6.5" transform="translate(-8821 18397)"/><circle class="g" cx="6.5" cy="6.5" r="6.5" transform="translate(-8788 18397)"/><circle class="g" cx="6.5" cy="6.5" r="6.5" transform="translate(-8755 18397)"/><circle class="g" cx="6.5" cy="6.5" r="6.5" transform="translate(-8722 18397)"/><circle class="g" cx="6.5" cy="6.5" r="6.5" transform="translate(-8689 18397)"/><circle class="g" cx="6.5" cy="6.5" r="6.5" transform="translate(-8656 18397)"/><circle class="g" cx="6.5" cy="6.5" r="6.5" transform="translate(-8623 18397)"/><circle class="g" cx="6.5" cy="6.5" r="6.5" transform="translate(-8590 18397)"/><circle class="g" cx="6.5" cy="6.5" r="6.5" transform="translate(-8854 18430)"/><circle class="g" cx="6.5" cy="6.5" r="6.5" transform="translate(-8821 18430)"/><circle class="g" cx="6.5" cy="6.5" r="6.5" transform="translate(-8788 18430)"/><circle class="g" cx="6.5" cy="6.5" r="6.5" transform="translate(-8755 18430)"/><circle class="g" cx="6.5" cy="6.5" r="6.5" transform="translate(-8722 18430)"/><circle class="g" cx="6.5" cy="6.5" r="6.5" transform="translate(-8689 18430)"/><circle class="g" cx="6.5" cy="6.5" r="6.5" transform="translate(-8656 18430)"/><circle class="g" cx="6.5" cy="6.5" r="6.5" transform="translate(-8623 18430)"/><circle class="g" cx="6.5" cy="6.5" r="6.5" transform="translate(-8590 18430)"/><circle class="g" cx="6.5" cy="6.5" r="6.5" transform="translate(-8854 18463)"/><circle class="g" cx="6.5" cy="6.5" r="6.5" transform="translate(-8821 18463)"/><circle class="g" cx="6.5" cy="6.5" r="6.5" transform="translate(-8788 18463)"/><circle class="g" cx="6.5" cy="6.5" r="6.5" transform="translate(-8755 18463)"/><circle class="g" cx="6.5" cy="6.5" r="6.5" transform="translate(-8722 18463)"/><circle class="g" cx="6.5" cy="6.5" r="6.5" transform="translate(-8689 18463)"/><circle class="g" cx="6.5" cy="6.5" r="6.5" transform="translate(-8656 18463)"/><circle class="g" cx="6.5" cy="6.5" r="6.5" transform="translate(-8623 18463)"/><circle class="g" cx="6.5" cy="6.5" r="6.5" transform="translate(-8590 18463)"/><circle class="g" cx="6.5" cy="6.5" r="6.5" transform="translate(-8854 18496)"/><circle class="g" cx="6.5" cy="6.5" r="6.5" transform="translate(-8821 18496)"/><circle class="g" cx="6.5" cy="6.5" r="6.5" transform="translate(-8788 18496)"/><circle class="g" cx="6.5" cy="6.5" r="6.5" transform="translate(-8755 18496)"/><circle class="g" cx="6.5" cy="6.5" r="6.5" transform="translate(-8722 18496)"/><circle class="g" cx="6.5" cy="6.5" r="6.5" transform="translate(-8689 18496)"/><circle class="g" cx="6.5" cy="6.5" r="6.5" transform="translate(-8656 18496)"/><circle class="g" cx="6.5" cy="6.5" r="6.5" transform="translate(-8623 18496)"/><circle class="g" cx="6.5" cy="6.5" r="6.5" transform="translate(-8590 18496)"/></g><path class="h" d="M10898.082,18604.105s114.546-15.619,53.8,183.969-265.54,275.955-65.95,334.963,192.647-12.146,150.994-100.662,137.039-151.158,137.039-151.158l19.16-267.111" transform="translate(-9249 -17629.82)"/><path class="i" d="M-14331.006,19262.535s624.153-45.668,397.833,174.85,14.508,353.99,49.326,371.4,266.94,55.129,246.63-136.373,75.44-194.4,75.44-194.4,574.5-55.131,165.388,513.57-829.318-557.465-829.318-557.465" transform="matrix(0.788, 0.616, -0.616, 0.788, 23133.395, -4359.322)"/></g></svg>