<svg xmlns="http://www.w3.org/2000/svg" xmlns:xlink="http://www.w3.org/1999/xlink" width="1920" height="437" viewBox="0 0 1920 437"><defs><style>.a{stroke:#707070;fill:url(#a);}.b,.c,.d,.e,.f,.g,.i{fill:none;}.b{stroke:#1f5598;stroke-width:3px;}.d{stroke:#d2cd7f;}.d,.e,.f,.g{stroke-linecap:round;stroke-width:2px;}.e{stroke:#7acd47;}.f{stroke:#8f8f8f;}.g{stroke:#f1e434;}.h,.j,.k{stroke:none;}.j{fill:#c9208b;}.k{fill:#298138;}</style><linearGradient id="a" y1="0.542" x2="1" y2="0.547" gradientUnits="objectBoundingBox"><stop offset="0" stop-color="#0f1056"/><stop offset="1" stop-color="#343578"/></linearGradient></defs><g transform="translate(0 -3341)"><g class="a" transform="translate(0 3341)"><rect class="h" width="1920" height="437"/><rect class="i" x="0.5" y="0.5" width="1919" height="436"/></g><g transform="translate(17.18 3166.023)"><g class="b" transform="translate(911.82 573.976)"><circle class="h" cx="7" cy="7" r="7"/><circle class="i" cx="7" cy="7" r="5.5"/></g><g class="c" transform="translate(785.501 243.31) rotate(-55)"><path class="h" d="M6.32,5.763a4,4,0,0,1,6.872,0l2.714,4.553a4,4,0,0,1-3.436,6.048H7.041a4,4,0,0,1-3.436-6.048Z"/><path class="j" d="M 9.75567626953125 5.811517715454102 C 9.41407585144043 5.811517715454102 8.562856674194336 5.906607627868652 8.037775993347168 6.787387847900391 L 5.323586463928223 11.34022808074951 C 4.785606384277344 12.24265766143799 5.129606246948242 13.04790782928467 5.302475929260254 13.35222816467285 C 5.475356101989746 13.65654754638672 5.990856170654297 14.36435699462891 7.041476249694824 14.36435699462891 L 12.46987628936768 14.36435699462891 C 13.5204963684082 14.36435699462891 14.03599643707275 13.65654754638672 14.20887565612793 13.35222816467285 C 14.38174629211426 13.04790782928467 14.72574615478516 12.24265766143799 14.18776607513428 11.34022808074951 L 11.47357654571533 6.787397384643555 C 10.948486328125 5.906607627868652 10.09727668762207 5.811517715454102 9.75567626953125 5.811517715454102 M 9.75567626953125 3.811517715454102 C 11.08572387695313 3.811517715454102 12.415771484375 4.46209716796875 13.19146633148193 5.76325798034668 L 15.9056568145752 10.31609725952148 C 17.49516677856445 12.98237800598145 15.57399654388428 16.36435699462891 12.46987628936768 16.36435699462891 L 7.041476249694824 16.36435699462891 C 3.937355995178223 16.36435699462891 2.016185760498047 12.98237800598145 3.605696678161621 10.31609725952148 L 6.319886207580566 5.76325798034668 C 7.0955810546875 4.46209716796875 8.425628662109375 3.811517715454102 9.75567626953125 3.811517715454102 Z"/></g><g class="c" transform="translate(241.786 566.87) rotate(-55)"><path class="h" d="M6.32,5.763a4,4,0,0,1,6.872,0l2.714,4.553a4,4,0,0,1-3.436,6.048H7.041a4,4,0,0,1-3.436-6.048Z"/><path class="j" d="M 9.75567626953125 5.811517715454102 C 9.41407585144043 5.811517715454102 8.562856674194336 5.906607627868652 8.037775993347168 6.787387847900391 L 5.323586463928223 11.34022808074951 C 4.785606384277344 12.24265766143799 5.129606246948242 13.04790782928467 5.302475929260254 13.35222816467285 C 5.475356101989746 13.65654754638672 5.990856170654297 14.36435699462891 7.041476249694824 14.36435699462891 L 12.46987628936768 14.36435699462891 C 13.5204963684082 14.36435699462891 14.03599643707275 13.65654754638672 14.20887565612793 13.35222816467285 C 14.38174629211426 13.04790782928467 14.72574615478516 12.24265766143799 14.18776607513428 11.34022808074951 L 11.47357654571533 6.787397384643555 C 10.948486328125 5.906607627868652 10.09727668762207 5.811517715454102 9.75567626953125 5.811517715454102 M 9.75567626953125 3.811517715454102 C 11.08572387695313 3.811517715454102 12.415771484375 4.46209716796875 13.19146633148193 5.76325798034668 L 15.9056568145752 10.31609725952148 C 17.49516677856445 12.98237800598145 15.57399654388428 16.36435699462891 12.46987628936768 16.36435699462891 L 7.041476249694824 16.36435699462891 C 3.937355995178223 16.36435699462891 2.016185760498047 12.98237800598145 3.605696678161621 10.31609725952148 L 6.319886207580566 5.76325798034668 C 7.0955810546875 4.46209716796875 8.425628662109375 3.811517715454102 9.75567626953125 3.811517715454102 Z"/></g><g class="c" transform="translate(1743.031 251.063) rotate(-99)"><path class="h" d="M6.32,5.763a4,4,0,0,1,6.872,0l2.714,4.553a4,4,0,0,1-3.436,6.048H7.041a4,4,0,0,1-3.436-6.048Z"/><path class="k" d="M 9.755679130554199 5.811497688293457 C 9.414078712463379 5.811497688293457 8.562869071960449 5.906587600708008 8.037789344787598 6.787367820739746 L 5.323598861694336 11.3401985168457 C 4.785609245300293 12.24261856079102 5.129619598388672 13.04785823822021 5.302489280700684 13.3521785736084 C 5.475358963012695 13.65649795532227 5.990869522094727 14.36431789398193 7.041489601135254 14.36431789398193 L 12.46986961364746 14.36431789398193 C 13.52048873901367 14.36431789398193 14.0359992980957 13.65649795532227 14.20886898040771 13.3521785736084 C 14.38174915313721 13.04785823822021 14.72574901580811 12.24260807037354 14.18776893615723 11.34018802642822 L 11.47357940673828 6.787378311157227 C 10.94848918914795 5.906587600708008 10.09727954864502 5.811497688293457 9.755679130554199 5.811497688293457 M 9.755680084228516 3.811497688293457 C 11.08572673797607 3.811497688293457 12.41577434539795 4.462078094482422 13.19146919250488 5.763237953186035 L 15.90565872192383 10.31605815887451 C 17.49516868591309 12.98232841491699 15.57398891448975 16.36431884765625 12.46986961364746 16.36431884765625 L 7.041489601135254 16.36431884765625 C 3.937369346618652 16.36431884765625 2.016189575195313 12.98232841491699 3.605709075927734 10.31605815887451 L 6.319899559020996 5.763237953186035 C 7.095588684082031 4.462078094482422 8.425634384155273 3.811497688293457 9.755680084228516 3.811497688293457 Z"/></g><g transform="translate(1811.433 502.897)"><line class="d" x2="6.923" y2="6.923" transform="translate(0)"/><line class="d" y1="6.923" x2="6.923" transform="translate(0)"/></g><line class="e" y1="6.923" x2="6.923" transform="translate(693.511 400.418)"/><line class="f" y1="6.923" x2="6.923" transform="translate(62.5 337.474)"/><g transform="translate(276.32 214.961)"><line class="g" x2="6.923" y2="6.923" transform="translate(0 4.896) rotate(-45)"/><line class="g" y1="6.923" x2="6.923" transform="translate(0 4.896) rotate(-45)"/></g></g></g></svg>