<svg xmlns="http://www.w3.org/2000/svg" xmlns:xlink="http://www.w3.org/1999/xlink" width="1920" height="905" viewBox="0 0 1920 905"><defs><style>.a{fill:#fff;}.b{clip-path:url(#a);}.c{stroke:#707070;fill:url(#b);}.d,.e,.f,.g,.h,.i,.j,.k,.l,.o{fill:none;}.d{stroke:#1f5598;stroke-width:3px;}.f{opacity:0.9;}.g{stroke:#d2cd7f;}.g,.h,.i,.j{stroke-linecap:round;stroke-width:2px;}.h{stroke:#7acd47;}.i{stroke:#8f8f8f;}.j{stroke:#f1e434;}.k{stroke:#343578;}.k,.l{stroke-width:4px;}.l{stroke:#7f81de;opacity:0.22;}.m{fill:#f7f6fe;opacity:0.04;}.n,.p,.q,.r{stroke:none;}.p{fill:#c9208b;}.q{fill:#6ad7f9;}.r{fill:#298138;}</style><clipPath id="a"><rect class="a" width="1920" height="905" transform="translate(0 5801)"/></clipPath><linearGradient id="b" y1="0.542" x2="1" y2="0.547" gradientUnits="objectBoundingBox"><stop offset="0" stop-color="#0f1056"/><stop offset="1" stop-color="#343578"/></linearGradient></defs><g class="b" transform="translate(0 -5801)"><g class="c" transform="translate(0 5801)"><rect class="n" width="1920" height="909"/><rect class="o" x="0.5" y="0.5" width="1919" height="908"/></g><g transform="translate(-26 5693)"><g class="d" transform="translate(990 843)"><circle class="n" cx="11" cy="11" r="11"/><circle class="o" cx="11" cy="11" r="9.5"/></g><g class="e" transform="translate(847.354 312.816) rotate(-55)"><path class="n" d="M12.064,5.763a4,4,0,0,1,6.872,0l8.459,14.188A4,4,0,0,1,23.959,26H7.041a4,4,0,0,1-3.436-6.048Z"/><path class="p" d="M 15.5 5.811517715454102 C 15.15839958190918 5.811517715454102 14.30718040466309 5.906606674194336 13.78210067749023 6.787387847900391 L 5.323579788208008 20.97586822509766 C 4.785600662231445 21.87829780578613 5.129600524902344 22.68353652954102 5.302480697631836 22.98785781860352 C 5.475349426269531 23.29217720031738 5.990859985351563 23.99999618530273 7.041479110717773 23.99999618530273 L 23.95851898193359 23.99999618530273 C 25.00914001464844 23.99999618530273 25.52465057373047 23.29217720031738 25.69751930236816 22.98785781860352 C 25.87039947509766 22.68353652954102 26.21439933776855 21.87829780578613 25.67642021179199 20.97586822509766 L 17.21789932250977 6.787397384643555 C 16.69281005859375 5.906606674194336 15.84160041809082 5.811517715454102 15.5 5.811517715454102 M 15.5 3.811517715454102 C 16.83004760742188 3.811517715454102 18.16009521484375 4.46209716796875 18.935791015625 5.76325798034668 L 27.39430999755859 19.95173645019531 C 28.98381996154785 22.61801719665527 27.0626392364502 25.99999618530273 23.95851898193359 25.99999618530273 L 7.041479110717773 25.99999618530273 C 3.937360763549805 25.99999618530273 2.016180038452148 22.61801719665527 3.605690002441406 19.95173645019531 L 12.06421089172363 5.76325798034668 C 12.83990478515625 4.46209716796875 14.16995239257813 3.811517715454102 15.5 3.811517715454102 Z"/></g><g class="f" transform="translate(347.354 911.816) rotate(-55)"><path class="n" d="M12.064,5.763a4,4,0,0,1,6.872,0l8.459,14.188A4,4,0,0,1,23.959,26H7.041a4,4,0,0,1-3.436-6.048Z"/><path class="q" d="M 15.5 5.811517715454102 C 15.15839958190918 5.811517715454102 14.30718040466309 5.906606674194336 13.78210067749023 6.787387847900391 L 5.323579788208008 20.97586822509766 C 4.785600662231445 21.87829780578613 5.129600524902344 22.68353652954102 5.302480697631836 22.98785781860352 C 5.475349426269531 23.29217720031738 5.990859985351563 23.99999618530273 7.041479110717773 23.99999618530273 L 23.95851898193359 23.99999618530273 C 25.00914001464844 23.99999618530273 25.52465057373047 23.29217720031738 25.69751930236816 22.98785781860352 C 25.87039947509766 22.68353652954102 26.21439933776855 21.87829780578613 25.67642021179199 20.97586822509766 L 17.21789932250977 6.787397384643555 C 16.69281005859375 5.906606674194336 15.84160041809082 5.811517715454102 15.5 5.811517715454102 M 15.5 3.811517715454102 C 16.83004760742188 3.811517715454102 18.16009521484375 4.46209716796875 18.935791015625 5.76325798034668 L 27.39430999755859 19.95173645019531 C 28.98381996154785 22.61801719665527 27.0626392364502 25.99999618530273 23.95851898193359 25.99999618530273 L 7.041479110717773 25.99999618530273 C 3.937360763549805 25.99999618530273 2.016180038452148 22.61801719665527 3.605690002441406 19.95173645019531 L 12.06421089172363 5.76325798034668 C 12.83990478515625 4.46209716796875 14.16995239257813 3.811517715454102 15.5 3.811517715454102 Z"/></g><g class="e" transform="translate(1883.479 213.918) rotate(-99)"><path class="n" d="M12.064,5.763a4,4,0,0,1,6.872,0l8.459,14.188A4,4,0,0,1,23.959,26H7.041a4,4,0,0,1-3.436-6.048Z"/><path class="r" d="M 15.50000476837158 5.811494827270508 C 15.15840435028076 5.811494827270508 14.30718421936035 5.906583786010742 13.7821044921875 6.787364959716797 L 5.32359504699707 20.97579383850098 C 4.785614013671875 21.87822341918945 5.129613876342773 22.68347549438477 5.302484512329102 22.98779487609863 C 5.475364685058594 23.29210472106934 5.990875244140625 23.99992370605469 7.041494369506836 23.99992370605469 L 23.95851516723633 23.99992370605469 C 25.00913429260254 23.99992370605469 25.52464485168457 23.29210472106934 25.69752502441406 22.98778533935547 C 25.87039566040039 22.68346405029297 26.21439361572266 21.87822341918945 25.67641448974609 20.97579383850098 L 17.2178955078125 6.787364959716797 C 16.69281387329102 5.906583786010742 15.8416051864624 5.811494827270508 15.50000476837158 5.811494827270508 M 15.50000381469727 3.811494827270508 C 16.83004951477051 3.811494827270508 18.16009521484375 4.462074279785156 18.93578338623047 5.763235092163086 L 27.3943042755127 19.95166397094727 C 28.98381423950195 22.61793518066406 27.06264495849609 25.99992370605469 23.95851516723633 25.99992370605469 L 7.041494369506836 25.99992370605469 C 3.93736457824707 25.99992370605469 2.016195297241211 22.61794471740723 3.605705261230469 19.95166397094727 L 12.0642147064209 5.763235092163086 C 12.83991050720215 4.462074279785156 14.16995811462402 3.811494827270508 15.50000381469727 3.811494827270508 Z"/></g><g transform="translate(1359 -153)"><line class="g" x2="11" y2="11" transform="translate(442.5 913.5)"/><line class="g" y1="11" x2="11" transform="translate(442.5 913.5)"/></g><line class="h" y1="11" x2="11" transform="translate(782.5 558.5)"/><line class="i" y1="11" x2="11" transform="translate(62.5 427.5)"/><g transform="translate(-345 -80)"><line class="j" x2="11" y2="11" transform="translate(747.222 292) rotate(-45)"/><line class="j" y1="11" x2="11" transform="translate(747.222 292) rotate(-45)"/></g></g><path class="k" d="M9164.185,18097.25s190.178-206.023,23.772-231.117-23.772-316.963-23.772-316.963,161.123-108.295,171.688,70,108.3,165.084,151.878,124.143,248.288-93.768,147.916,89.807-309.039,320.924-283.946,516.385" transform="matrix(0.966, 0.259, -0.259, 0.966, -4315.795, -13461.006)"/><path class="l" d="M56.895,580.661S247.072,374.637,80.667,349.543,56.895,32.58,56.895,32.58s161.123-108.295,171.688,70,108.3,165.084,151.877,124.143,248.288-93.768,147.916,89.807S219.338,637.45,244.431,832.909" transform="matrix(-0.966, -0.259, 0.259, -0.966, 1954.428, 6427.227)"/><path class="m" d="M282.5,770.834C477.744,797.591,755.255,523.589,565,385.417S438.522,0,282.5,0,0,172.557,0,385.417,87.257,744.077,282.5,770.834Z" transform="translate(-198.208 5936.581) rotate(-11)"/></g></svg>