<svg xmlns="http://www.w3.org/2000/svg" xmlns:xlink="http://www.w3.org/1999/xlink" width="1920" height="1145" viewBox="0 0 1920 1145"><defs><style>.a{fill:#fff;stroke:#707070;}.b{clip-path:url(#a);}.c{fill:#2e059b;opacity:0.04;}.d{fill:none;stroke:#343578;stroke-width:4px;opacity:0.11;}</style><clipPath id="a"><rect class="a" width="1920" height="1145" transform="translate(0 2196)"/></clipPath></defs><g class="b" transform="translate(0 -2196)"><path class="c" d="M321.261,2.076c222.032-30.428,537.618,281.168,321.261,438.3s-143.834,438.3-321.261,438.3S0,682.44,0,440.375,99.229,32.5,321.261,2.076Z" transform="translate(1832.527 3340.76) rotate(-159)"/><path class="d" d="M-14331.006,19262.535s624.153-45.668,397.833,174.85,14.508,353.99,49.326,371.4,266.94,55.129,246.63-136.373,75.44-194.4,75.44-194.4,574.5-55.131,165.388,513.57-829.318-557.465-829.318-557.465" transform="matrix(0.788, 0.616, -0.616, 0.788, 23133.395, -4359.322)"/></g></svg>