<svg xmlns="http://www.w3.org/2000/svg" width="21.975" height="17.58" viewBox="0 0 21.975 17.58"><defs><style>.a{fill:#e4e5e5;}</style></defs><path class="a" d="M20.082,11.291,19.567,10l-.912-2.281A5.1,5.1,0,0,0,13.894,4.5H8.08A5.1,5.1,0,0,0,3.32,7.723L2.407,10l-.515,1.286A2.924,2.924,0,0,0,0,14.022v2.2a2.906,2.906,0,0,0,.732,1.92v2.475A1.465,1.465,0,0,0,2.2,22.08H3.662a1.465,1.465,0,0,0,1.465-1.465V19.15h11.72v1.465a1.465,1.465,0,0,0,1.465,1.465h1.465a1.465,1.465,0,0,0,1.465-1.465V18.139a2.9,2.9,0,0,0,.732-1.92v-2.2A2.924,2.924,0,0,0,20.082,11.291ZM6.04,8.811A2.2,2.2,0,0,1,8.08,7.43h5.814a2.2,2.2,0,0,1,2.04,1.381l.912,2.281H5.127L6.04,8.811Zm-2.377,7.4A1.382,1.382,0,0,1,2.2,14.75a1.382,1.382,0,0,1,1.465-1.46,2.818,2.818,0,0,1,2.2,2.191C5.86,16.357,4.541,16.211,3.662,16.211Zm14.65,0c-.879,0-2.2.146-2.2-.73a2.818,2.818,0,0,1,2.2-2.191,1.382,1.382,0,0,1,1.465,1.46A1.382,1.382,0,0,1,18.312,16.211Z" transform="translate(0 -4.5)"/></svg>