<svg xmlns="http://www.w3.org/2000/svg" width="20.702" height="18.147" viewBox="0 0 20.702 18.147"><defs><style>.a{fill:#e4e5e5;}</style></defs><path class="a" d="M21.376,7.668l-1.7,13.3H13.947L12.257,7.6h7l1.383-4.777.784.236-1.327,4.6,1.281.01Zm-9.93,7.7s.214-1.725-2.758-1.725H3.954C.986,13.64,1.2,15.365,1.2,15.365h10.25ZM1.2,19.247s-.21,1.725,2.758,1.725H8.689c2.972,0,2.758-1.725,2.758-1.725H1.2ZM11,18.384a.992.992,0,0,0,.879-1.078A.991.991,0,0,0,11,16.228H1.6a.992.992,0,0,0-.88,1.079.994.994,0,0,0,.88,1.078H11Z" transform="translate(-0.72 -2.825)"/></svg>