<svg xmlns="http://www.w3.org/2000/svg" width="18.28" height="18.28" viewBox="0 0 18.28 18.28"><defs><style>.a{fill:#e4e5e5;}</style></defs><path class="a" d="M19,6.813a.382.382,0,0,0-.381-.381H13.668a.382.382,0,0,1-.381-.381V1.1A.382.382,0,0,0,12.907.72H6.813a.382.382,0,0,0-.381.381V6.052a.382.382,0,0,1-.381.381H1.1a.382.382,0,0,0-.381.381v6.093a.382.382,0,0,0,.381.381H6.052a.382.382,0,0,1,.381.381v4.951A.382.382,0,0,0,6.813,19h6.093a.382.382,0,0,0,.381-.381V13.668a.382.382,0,0,1,.381-.381h4.951A.382.382,0,0,0,19,12.907Z" transform="translate(-0.72 -0.72)"/></svg>