<svg xmlns="http://www.w3.org/2000/svg" width="20.25" height="18" viewBox="0 0 20.25 18"><defs><style>.a{fill:#e4e5e5;}</style></defs><path class="a" d="M16.875,6.75H12.857L9.162.283A.563.563,0,0,0,8.673,0h-2.3A.562.562,0,0,0,5.83.717L7.554,6.75H3.938L2.419,4.725a.563.563,0,0,0-.45-.225H.563a.562.562,0,0,0-.546.7L1.125,9,.017,12.8a.562.562,0,0,0,.546.7H1.969a.562.562,0,0,0,.45-.225L3.938,11.25H7.554L5.83,17.283A.563.563,0,0,0,6.371,18h2.3a.563.563,0,0,0,.488-.283l3.7-6.467h4.018c1.243,0,3.375-1.007,3.375-2.25S18.118,6.75,16.875,6.75Z" transform="translate(0)"/></svg>