<svg xmlns="http://www.w3.org/2000/svg" width="35" height="35" viewBox="0 0 35 35"><defs><style>.a{fill:#f7f7f7;opacity:0.102;}.b{fill:#fff;}</style></defs><g transform="translate(-0.403 -0.201)"><circle class="a" cx="17.5" cy="17.5" r="17.5" transform="translate(0.403 0.201)"/><path class="b" d="M14.257,6.6c.01.141.01.282.01.423A9.2,9.2,0,0,1,5,16.287a9.2,9.2,0,0,1-5-1.462,6.737,6.737,0,0,0,.786.04A6.522,6.522,0,0,0,4.83,13.474a3.263,3.263,0,0,1-3.045-2.259,4.107,4.107,0,0,0,.615.05,3.444,3.444,0,0,0,.857-.111,3.257,3.257,0,0,1-2.611-3.2v-.04a3.28,3.28,0,0,0,1.472.413A3.262,3.262,0,0,1,1.109,3.976,9.257,9.257,0,0,0,7.824,7.384a3.676,3.676,0,0,1-.081-.746A3.26,3.26,0,0,1,13.38,4.409a6.412,6.412,0,0,0,2.067-.786,3.248,3.248,0,0,1-1.432,1.795,6.529,6.529,0,0,0,1.875-.5A7,7,0,0,1,14.257,6.6Z" transform="translate(9.71 8.124)"/></g></svg>