<svg xmlns="http://www.w3.org/2000/svg" width="22.05" height="17.15" viewBox="0 0 22.05 17.15"><defs><style>.a{fill:#e4e5e5;}</style></defs><path class="a" d="M21.753,8.375a12.243,12.243,0,0,0-8.186,3.177,9.837,9.837,0,0,0-2.542,3.631,9.837,9.837,0,0,0-2.542-3.631A12.243,12.243,0,0,0,.3,8.375a.291.291,0,0,0-.3.3A10.6,10.6,0,0,0,3.4,16.3a10.161,10.161,0,0,0,7.627,3.1,10.16,10.16,0,0,0,7.627-3.1,10.6,10.6,0,0,0,3.4-7.629.291.291,0,0,0-.3-.3ZM11.024,12.609a10.532,10.532,0,0,1,1.688-1.934,11.457,11.457,0,0,1,2.307-1.73,12.627,12.627,0,0,0-3.7-6.593.46.46,0,0,0-.58,0,12.627,12.627,0,0,0-3.7,6.587,11.255,11.255,0,0,1,2.267,1.7,10.825,10.825,0,0,1,1.724,1.97Z" transform="translate(0 -2.25)"/></svg>