<svg xmlns="http://www.w3.org/2000/svg" width="18" height="18" viewBox="0 0 18 18"><defs><style>.a{fill:#e4e5e5;}</style></defs><path class="a" d="M11.448,16.634a2.335,2.335,0,0,1,.391-.03,2.683,2.683,0,0,1,1.13.25,2.7,2.7,0,0,0,2.194,0,2.668,2.668,0,0,1,1.125-.25,2.313,2.313,0,0,1,1.047.25,2.407,2.407,0,0,0,1.01.232V18.72a2.324,2.324,0,0,1-1.01-.239,2.586,2.586,0,0,0-1.089-.246,2.673,2.673,0,0,0-1.1.246,2.605,2.605,0,0,1-2.178,0,2.775,2.775,0,0,0-1.127-.246,2.814,2.814,0,0,0-1.13.246,2.629,2.629,0,0,1-2.188,0,2.714,2.714,0,0,0-2.258,0,2.624,2.624,0,0,1-2.186,0,2.817,2.817,0,0,0-1.13-.246,2.777,2.777,0,0,0-1.13.246,2.654,2.654,0,0,1-1.1.239V17.088a2.749,2.749,0,0,0,1.1-.232,2.674,2.674,0,0,1,1.13-.25,2.713,2.713,0,0,1,1.13.25,2.686,2.686,0,0,0,2.186,0,2.661,2.661,0,0,1,.612-.2l10.368-1.835a1.364,1.364,0,0,0,.952-.712c.031-.076.141-.1.234-.094a.316.316,0,0,1,.293.322c0,.264-.2,1-1.337,1.231l-5.934,1.064ZM2.452,3.7a1.489,1.489,0,1,0-1.5-1.491A1.5,1.5,0,0,0,2.452,3.7ZM6.815,15.733a.957.957,0,0,0,.9.647l0,0a.952.952,0,0,0,.956-.95l-.018-.155L7.506,10.411a1.268,1.268,0,0,0-.7-.731l-1.681-1L4.358,5.4l4.724-.009a.648.648,0,1,0,0-1.292H2.262c-.681,0-1,.437-.917.86l.966,4.327a1.294,1.294,0,0,0,.709.921l.022,0,2.812,1.638.96,3.889ZM10.1,4.845H18.72V5.22H10.1Z" transform="translate(-0.72 -0.72)"/></svg>